<?xml version="1.0" encoding="utf-8"?>
<!-- Generator: Adobe Illustrator 16.0.0, SVG Export Plug-In . SVG Version: 6.00 Build 0)  -->
<!DOCTYPE svg PUBLIC "-//W3C//DTD SVG 1.1//EN" "http://www.w3.org/Graphics/SVG/1.1/DTD/svg11.dtd">
<svg version="1.1" id="Layer_1" xmlns="http://www.w3.org/2000/svg" xmlns:xlink="http://www.w3.org/1999/xlink" x="0px" y="0px"
	 width="165px" height="45px" viewBox="0 0 165 45" enable-background="new 0 0 165 45" xml:space="preserve">
<path fill="#FFFFFF" d="M82.711,37.043c0-0.277-0.082-0.496-0.246-0.664c-0.16-0.172-0.367-0.258-0.629-0.258
	c-0.281,0-0.508,0.082-0.684,0.242c-0.176,0.156-0.285,0.383-0.332,0.68H82.711z M84.203,37.527v0.414h-3.398
	c0.035,0.34,0.16,0.594,0.371,0.766s0.504,0.258,0.883,0.258c0.309,0,0.621-0.047,0.938-0.137c0.324-0.09,0.652-0.23,0.992-0.414
	v1.121c-0.344,0.129-0.688,0.227-1.031,0.293s-0.688,0.102-1.031,0.102c-0.82,0-1.461-0.207-1.918-0.625
	c-0.457-0.422-0.684-1.008-0.684-1.762c0-0.742,0.223-1.324,0.672-1.75c0.445-0.426,1.062-0.637,1.848-0.637
	c0.715,0,1.285,0.215,1.715,0.645S84.203,36.809,84.203,37.527z"/>
<rect x="85.363" y="33.75" fill="#FFFFFF" width="1.562" height="6.062"/>
<path fill="#FFFFFF" d="M88.465,33.75h1.648c0.918,0,1.605,0.066,2.055,0.199s0.836,0.352,1.16,0.668
	c0.281,0.273,0.492,0.586,0.633,0.944c0.137,0.356,0.207,0.763,0.207,1.216c0,0.457-0.07,0.863-0.207,1.223
	c-0.141,0.359-0.352,0.672-0.633,0.945c-0.324,0.316-0.715,0.539-1.172,0.672c-0.453,0.129-1.133,0.194-2.043,0.194h-1.648V33.75z
	 M90.027,34.934v3.695h0.559c0.641,0,1.129-0.156,1.461-0.473c0.34-0.316,0.508-0.777,0.508-1.379s-0.168-1.059-0.504-1.375
	c-0.332-0.312-0.82-0.469-1.465-0.469H90.027z"/>
<path fill="#FFFFFF" d="M101.742,35.406v1.105c-0.312-0.129-0.613-0.227-0.902-0.293c-0.289-0.062-0.562-0.098-0.82-0.098
	c-0.277,0-0.48,0.035-0.617,0.105c-0.133,0.07-0.199,0.176-0.199,0.316c0,0.117,0.051,0.207,0.152,0.269
	c0.102,0.063,0.285,0.11,0.547,0.138l0.254,0.039c0.746,0.094,1.246,0.25,1.504,0.465s0.387,0.555,0.387,1.02
	c0,0.484-0.18,0.848-0.539,1.089c-0.355,0.247-0.887,0.368-1.598,0.368c-0.301,0-0.613-0.023-0.934-0.074
	c-0.32-0.047-0.648-0.117-0.984-0.211v-1.102c0.289,0.141,0.586,0.246,0.887,0.316c0.305,0.07,0.617,0.105,0.93,0.105
	c0.285,0,0.5-0.039,0.641-0.121c0.145-0.078,0.215-0.191,0.215-0.348c0-0.129-0.051-0.227-0.148-0.289s-0.293-0.113-0.59-0.148
	l-0.254-0.031c-0.648-0.082-1.102-0.234-1.36-0.453c-0.261-0.219-0.39-0.551-0.39-0.996c0-0.484,0.164-0.84,0.496-1.074
	c0.328-0.23,0.836-0.348,1.516-0.348c0.27,0,0.551,0.02,0.844,0.062C101.074,35.258,101.395,35.32,101.742,35.406z"/>
<path fill="#FFFFFF" d="M103.141,33.496h1.453v1.184h-1.453V33.496z M103.141,35.266h1.453v4.546h-1.453V35.266z"/>
<path fill="#FFFFFF" d="M110.211,36.02c0.184-0.281,0.402-0.492,0.652-0.641c0.254-0.148,0.535-0.223,0.836-0.223
	c0.523,0,0.922,0.16,1.195,0.484c0.273,0.32,0.41,0.789,0.41,1.402v2.769h-1.461v-2.37c0-0.035,0.004-0.07,0.004-0.109
	s0.004-0.094,0.004-0.164c0-0.32-0.047-0.555-0.145-0.695c-0.094-0.148-0.246-0.219-0.457-0.219c-0.277,0-0.488,0.113-0.641,0.34
	c-0.148,0.227-0.227,0.555-0.23,0.984v2.233h-1.465v-2.37c0-0.503-0.043-0.828-0.129-0.969c-0.086-0.148-0.238-0.219-0.461-0.219
	c-0.281,0-0.496,0.113-0.645,0.344c-0.152,0.227-0.23,0.551-0.23,0.977v2.237h-1.461v-4.546h1.461v0.664
	c0.18-0.254,0.383-0.449,0.612-0.578c0.235-0.129,0.489-0.195,0.771-0.195c0.312,0,0.59,0.074,0.832,0.227
	C109.902,35.535,110.086,35.746,110.211,36.02z"/>
<path fill="#FFFFFF" d="M117.086,36.211c-0.309,0-0.551,0.117-0.719,0.344c-0.164,0.23-0.246,0.559-0.246,0.988
	s0.082,0.762,0.246,0.988c0.168,0.23,0.41,0.344,0.719,0.344c0.312,0,0.547-0.113,0.711-0.344c0.164-0.227,0.246-0.555,0.246-0.988
	s-0.082-0.762-0.246-0.992C117.633,36.324,117.398,36.211,117.086,36.211z M116.121,39.152v2.387h-1.453v-6.273h1.453v0.664
	c0.199-0.262,0.422-0.457,0.664-0.582c0.246-0.129,0.523-0.191,0.84-0.191c0.563,0,1.023,0.223,1.383,0.668s0.539,1.02,0.539,1.719
	s-0.18,1.273-0.539,1.719s-0.819,0.668-1.383,0.668c-0.316,0-0.594-0.062-0.84-0.188C116.543,39.617,116.32,39.418,116.121,39.152z"
	/>
<rect x="120.625" y="33.496" fill="#FFFFFF" width="1.453" height="6.315"/>
<path fill="#FFFFFF" d="M122.887,35.266h1.453l1.222,3.086l1.04-3.086h1.453l-1.914,4.977c-0.191,0.504-0.414,0.859-0.672,1.059
	c-0.254,0.203-0.594,0.305-1.012,0.305h-0.84v-0.953h0.453c0.246,0,0.426-0.039,0.539-0.117s0.199-0.219,0.262-0.422l0.039-0.129
	L122.887,35.266z"/>
<polygon fill="#FFFFFF" points="131.391,35.266 132.801,35.266 133.566,38.398 134.332,35.266 135.547,35.266 136.309,38.367 
	137.074,35.266 138.488,35.266 137.289,39.812 135.703,39.812 134.938,36.688 134.176,39.812 132.586,39.812 "/>
<path fill="#FFFFFF" d="M141.637,35.156c0.781,0,1.395,0.211,1.832,0.633c0.441,0.422,0.66,1.008,0.66,1.754
	s-0.219,1.332-0.66,1.754c-0.438,0.422-1.051,0.633-1.832,0.633c-0.785,0-1.398-0.211-1.84-0.633s-0.664-1.008-0.664-1.754
	s0.223-1.332,0.664-1.754S140.852,35.156,141.637,35.156z M141.637,36.195c-0.32,0-0.566,0.116-0.738,0.348
	c-0.168,0.23-0.25,0.562-0.25,1c0,0.434,0.082,0.769,0.25,1.004c0.172,0.227,0.418,0.344,0.738,0.344
	c0.316,0,0.559-0.117,0.727-0.344c0.168-0.235,0.254-0.57,0.254-1.004c0-0.438-0.086-0.77-0.254-1
	C142.195,36.312,141.953,36.195,141.637,36.195z"/>
<path fill="#FFFFFF" d="M148.566,36.504c-0.128-0.059-0.255-0.102-0.383-0.129c-0.125-0.031-0.25-0.047-0.375-0.047
	c-0.375,0-0.664,0.121-0.867,0.363c-0.199,0.238-0.301,0.578-0.301,1.027v2.093h-1.452v-4.546h1.452v0.746
	c0.188-0.297,0.402-0.512,0.645-0.648s0.531-0.207,0.871-0.207c0.047,0,0.102,0.004,0.155,0.008c0.06,0.004,0.142,0.012,0.25,0.024
	L148.566,36.504z"/>
<polygon fill="#FFFFFF" points="149.297,33.496 150.75,33.496 150.75,36.934 152.422,35.266 154.109,35.266 151.891,37.352 
	154.285,39.812 152.523,39.812 150.75,37.918 150.75,39.812 149.297,39.812 "/>
<path fill="#FFFFFF" d="M158.383,35.406v1.105c-0.309-0.129-0.609-0.227-0.898-0.293c-0.289-0.062-0.562-0.098-0.82-0.098
	c-0.277,0-0.484,0.035-0.617,0.105s-0.199,0.176-0.199,0.316c0,0.117,0.051,0.207,0.148,0.269c0.105,0.063,0.285,0.11,0.551,0.138
	l0.254,0.039c0.746,0.094,1.246,0.25,1.504,0.465c0.254,0.215,0.384,0.555,0.384,1.02c0,0.484-0.177,0.848-0.536,1.089
	c-0.355,0.247-0.891,0.368-1.598,0.368c-0.301,0-0.613-0.023-0.934-0.074c-0.32-0.047-0.648-0.117-0.988-0.211v-1.102
	c0.289,0.141,0.586,0.246,0.891,0.316s0.613,0.105,0.93,0.105c0.281,0,0.496-0.039,0.641-0.121c0.145-0.078,0.215-0.191,0.215-0.348
	c0-0.129-0.051-0.227-0.148-0.289c-0.099-0.062-0.297-0.113-0.59-0.148l-0.259-0.031c-0.644-0.082-1.097-0.234-1.358-0.453
	c-0.258-0.219-0.387-0.551-0.387-0.996c0-0.484,0.164-0.84,0.492-1.074c0.332-0.23,0.836-0.348,1.52-0.348
	c0.27,0,0.551,0.02,0.844,0.062C157.719,35.258,158.039,35.32,158.383,35.406z"/>
<path fill="#FFFFFF" d="M160.25,38.367h1.461v1.444h-1.461V38.367z M160.25,33.75h1.461v2.328l-0.207,1.695h-1.047l-0.207-1.695
	V33.75z"/>
<path fill="#FFFFFF" d="M41.754,20.738h-3.941l1.055-3.476c0.371-1.305,0.902-5.215,0.961-5.617c0.031,0.402,0.5,4.375,0.902,5.648
	L41.754,20.738 M38.559,7.52c-0.559,0-0.809,0.246-0.965,0.773l-5.801,19.551c-0.156,0.496,0.031,0.777,0.59,0.777h2.512
	c0.559,0,0.777-0.281,0.934-0.777l1.086-3.785h5.77l1.086,3.785c0.156,0.496,0.375,0.777,0.902,0.777h2.793
	c0.527,0,0.711-0.281,0.559-0.777L42.25,8.293c-0.156-0.527-0.434-0.773-0.992-0.773H38.559"/>
<path fill="#FFFFFF" d="M60.008,13.602c0,0.527,0.184,0.773,0.711,0.773h2.609c0.559,0,0.773-0.246,0.773-0.773v-1.274
	c0-2.605-1.738-5.058-7.168-5.058s-7.043,2.453-7.043,5.058v1.832c0,1.86,1.332,3.445,2.824,4.004l4.809,1.797
	c1.398,0.527,2.637,1.027,2.637,2.297v0.992c0,1.523-1.211,2.234-3.289,2.234c-2.109,0-3.289-0.711-3.289-2.234v-1.395
	c0-0.558-0.188-0.808-0.746-0.808H50.23c-0.527,0-0.746,0.25-0.746,0.808v1.954c0,2.609,1.895,5.059,7.418,5.059
	c5.555,0,7.387-2.449,7.387-5.059v-2.387c0-2.297-1.551-3.727-3.664-4.469l-5.398-1.926c-0.496-0.187-1.273-0.589-1.273-1.675
	v-0.465c0-1.52,1.027-2.235,3.043-2.235c1.984,0,3.012,0.715,3.012,2.235V13.602"/>
<path fill="#FFFFFF" d="M77.766,13.602c0,0.527,0.188,0.773,0.715,0.773h2.605c0.559,0,0.777-0.246,0.777-0.773v-1.274
	c0-2.605-1.738-5.058-7.172-5.058c-5.43,0-7.043,2.453-7.043,5.058v1.832c0,1.86,1.336,3.445,2.824,4.004l4.809,1.797
	c1.398,0.527,2.641,1.027,2.641,2.297v0.992c0,1.523-1.211,2.234-3.289,2.234c-2.113,0-3.293-0.711-3.293-2.234v-1.395
	c0-0.558-0.184-0.808-0.742-0.808h-2.609c-0.527,0-0.742,0.25-0.742,0.808v1.954c0,2.609,1.891,5.059,7.418,5.059
	c5.555,0,7.383-2.449,7.383-5.059v-2.387c0-2.297-1.551-3.727-3.66-4.469l-5.398-1.926c-0.5-0.187-1.273-0.589-1.273-1.675v-0.465
	c0-1.52,1.023-2.235,3.039-2.235c1.988,0,3.012,0.715,3.012,2.235V13.602"/>
<path fill="#FFFFFF" d="M89.816,8.324c0-0.558-0.188-0.804-0.746-0.804h-2.699c-0.56,0-0.746,0.246-0.746,0.804v19.487
	c0,0.56,0.187,0.81,0.746,0.81h2.699c0.559,0,0.746-0.25,0.746-0.81V8.324"/>
<path fill="#FFFFFF" d="M109.191,8.293c0-0.527-0.184-0.773-0.742-0.773h-2.453c-0.558,0-0.746,0.246-0.746,0.773v12.414
	c0,0-0.527-1.273-1.055-2.172L97.961,7.828c-0.125-0.219-0.312-0.308-0.652-0.308h-2.453c-0.559,0-0.746,0.246-0.746,0.773v19.551
	c0,0.527,0.188,0.777,0.746,0.777h2.453c0.559,0,0.742-0.25,0.742-0.777V15.461c0.031,0.094,0.406,1.117,1.242,2.516l5.988,10.273
	c0.157,0.277,0.312,0.371,0.715,0.371h2.453c0.559,0,0.742-0.25,0.742-0.777V8.293"/>
<path fill="#FFFFFF" d="M121.762,20.738h-3.941l1.055-3.476c0.371-1.305,0.902-5.215,0.961-5.617c0.031,0.402,0.5,4.375,0.902,5.648
	L121.762,20.738 M118.566,7.52c-0.559,0-0.809,0.246-0.965,0.773l-5.801,19.551c-0.156,0.496,0.031,0.777,0.59,0.777h2.512
	c0.559,0,0.777-0.281,0.934-0.777l1.086-3.785h5.77l1.086,3.785c0.156,0.496,0.375,0.777,0.902,0.777h2.793
	c0.527,0,0.716-0.281,0.559-0.777l-5.773-19.551c-0.156-0.527-0.434-0.773-0.992-0.773H118.566"/>
<path fill="#FFFFFF" d="M137.922,10.992c2.078,0,3.352,0.778,3.352,2.328v1.461c0,1.551-1.273,2.324-3.352,2.324h-3.074v-6.113
	H137.922 M137.922,20.582h0.188l3.039,7.229c0.219,0.497,0.344,0.81,0.777,0.81h2.73c0.559,0,0.93-0.312,0.715-0.81l-3.352-7.819
	c2.48-0.898,3.414-2.637,3.414-4.469v-2.945c0-2.609-1.895-5.058-7.512-5.058h-6.516c-0.559,0-0.746,0.246-0.746,0.804v19.487
	c0,0.56,0.188,0.81,0.746,0.81h2.699c0.559,0,0.742-0.25,0.742-0.81v-7.229H137.922"/>
<path fill="#FFFFFF" d="M160.938,28.621c0.558,0,0.772-0.219,0.772-0.777v-1.953c0-0.559-0.215-0.746-0.772-0.746h-7.481v-5.773
	h6.641c0.559,0,0.809-0.215,0.809-0.742v-1.863c0-0.559-0.25-0.746-0.809-0.746h-6.641v-5.028h7.168
	c0.527,0,0.777-0.215,0.777-0.773V8.262c0-0.559-0.25-0.742-0.777-0.742h-10.613c-0.559,0-0.742,0.246-0.742,0.804v19.487
	c0,0.56,0.184,0.81,0.742,0.81H160.938"/>
<path fill="#FFFFFF" d="M3.578,26.473c0.695,2.418,2.715,4.109,6.793,4.637v-4.637H3.578z"/>
<path fill="#FFFFFF" d="M13,3.395c-6.207,0-8.254,2.847-8.254,7.058v6.289h-1.16c-0.164,0-0.297,0.129-0.297,0.293v2.949
	c0,0.164,0.133,0.297,0.297,0.297h6.5c0.164,0,0.297-0.133,0.297-0.297v-2.949c0-0.164-0.133-0.293-0.297-0.293H7.824v-6.078
	c0-2.516,1.09-4.215,5.258-4.215c4.172,0,5.258,1.699,5.258,4.215v6.231c0,0.546,0.188,0.757,0.641,0.757h1.633
	c0.453,0,0.676-0.211,0.676-0.757v-6.442C21.289,6.242,19.254,3.395,13,3.395z"/>
<path fill="#FFFFFF" d="M23.25,22.992v-5.488c0-0.492-0.219-0.766-0.766-0.766h-5.023v6.254H23.25z"/>
<path fill="#FFFFFF" d="M10.371,21.801H3.289v2.43c0,0.242,0.008,0.484,0.023,0.719h7.059V21.801z"/>
<path fill="#FFFFFF" d="M15.938,23.754v-7.016h-4.039v14.508c0.461,0.027,0.945,0.039,1.453,0.039c7.32,0,9.785-2.715,9.895-6.77
	h-6.547C16.277,24.516,15.938,24.176,15.938,23.754z"/>
</svg>
