<?xml version="1.0" encoding="iso-8859-1"?>
<!-- Generator: Adobe Illustrator 19.0.0, SVG Export Plug-In . SVG Version: 6.00 Build 0)  -->
<svg version="1.1" id="Capa_1" xmlns="http://www.w3.org/2000/svg" xmlns:xlink="http://www.w3.org/1999/xlink" x="0px" y="0px"
	 viewBox="0 0 512.132 512.132" style="enable-background:new 0 0 512.132 512.132;" xml:space="preserve">
<g transform="translate(0 -1)">
	<g>
		<g>
			<path d="M478.737,34.398C444.512,0.165,388.982-8.068,322.366,11.165c-22.929,6.782-45.136,15.802-66.3,26.929
				c-21.164-11.127-43.371-20.147-66.3-26.929C123.161-8.06,67.616,0.181,33.395,34.398c-46.837,46.833-41.985,133.49,4.034,222.667
				c-46.019,89.177-50.871,175.833-4.034,222.667c22.129,22.133,53.163,33.4,90.346,33.4c22.375-0.286,44.6-3.708,66.025-10.167
				c22.929-6.782,45.136-15.802,66.3-26.929c21.164,11.127,43.371,20.147,66.3,26.929c21.425,6.458,43.65,9.88,66.025,10.167
				c37.179,0,68.221-11.275,90.346-33.4c46.837-46.833,41.985-133.49-4.034-222.667C520.721,167.888,525.574,81.232,478.737,34.398z
				 M327.104,27.565c60.383-17.45,109.937-10.725,139.566,18.9c40.09,40.09,36.552,114.177-1.66,192.779
				c-22.979-39.394-51.012-75.614-83.386-107.737c-32.048-32.318-68.133-60.366-107.359-83.449
				C291.275,39.764,308.95,32.91,327.104,27.565z M45.461,46.465c18.833-18.833,45.713-28.408,78.313-28.408
				c20.762,0.293,41.38,3.494,61.254,9.508c18.154,5.344,35.828,12.199,52.838,20.493c-39.226,23.083-75.311,51.131-107.359,83.449
				C98.134,163.63,70.101,199.85,47.121,239.244C8.91,160.642,5.371,86.554,45.461,46.465z M185.028,486.565
				c-60.371,17.45-109.933,10.733-139.567-18.9c-40.09-40.09-36.552-114.177,1.66-192.779
				c22.979,39.394,51.012,75.614,83.386,107.738c32.048,32.318,68.133,60.365,107.359,83.449
				C220.856,474.365,203.182,481.22,185.028,486.565z M142.574,370.556c-33.946-33.592-62.991-71.798-86.28-113.492
				c23.289-41.694,52.335-79.899,86.281-113.492c33.569-33.955,71.779-62.982,113.491-86.217
				c41.713,23.234,79.923,52.262,113.492,86.217c33.946,33.592,62.991,71.798,86.28,113.492
				c-23.289,41.694-52.335,79.899-86.281,113.492c-33.569,33.955-71.779,62.982-113.491,86.217
				C214.353,433.539,176.143,404.511,142.574,370.556z M466.67,467.665L466.67,467.665c-29.625,29.633-79.183,36.358-139.567,18.9
				c-18.154-5.344-35.828-12.199-52.838-20.493c39.226-23.083,75.311-51.131,107.359-83.449
				c32.374-32.123,60.407-68.343,83.386-107.738C503.221,353.488,506.76,427.575,466.67,467.665z"/>
			<path d="M358.466,214.398c4.713,0,8.533-3.821,8.533-8.533s-3.82-8.533-8.533-8.533h-25.6
				c-0.011-9.421-7.645-17.056-17.067-17.067v-25.6c0-4.713-3.82-8.533-8.533-8.533s-8.533,3.821-8.533,8.533v25.6h-17.067v-25.6
				c0-4.713-3.821-8.533-8.533-8.533c-4.713,0-8.533,3.821-8.533,8.533v25.6h-17.067v-25.6c0-4.713-3.82-8.533-8.533-8.533
				s-8.533,3.821-8.533,8.533v25.6h-17.067v-25.6c0-4.713-3.821-8.533-8.533-8.533s-8.533,3.821-8.533,8.533v25.6
				c-9.421,0.011-17.056,7.645-17.067,17.067h-25.6c-4.713,0-8.533,3.82-8.533,8.533s3.821,8.533,8.533,8.533h25.6v17.067h-25.6
				c-4.713,0-8.533,3.82-8.533,8.533s3.821,8.533,8.533,8.533h25.6v17.067h-25.6c-4.713,0-8.533,3.821-8.533,8.533
				c0,4.713,3.821,8.533,8.533,8.533h25.6v17.067h-25.6c-4.713,0-8.533,3.82-8.533,8.533s3.821,8.533,8.533,8.533h25.6
				c0.011,9.421,7.645,17.056,17.067,17.067v25.6c0,4.713,3.82,8.533,8.533,8.533s8.533-3.82,8.533-8.533v-25.6h17.067v25.6
				c0,4.713,3.82,8.533,8.533,8.533s8.533-3.82,8.533-8.533v-25.6h17.067v25.6c0,4.713,3.821,8.533,8.533,8.533
				c4.713,0,8.533-3.82,8.533-8.533v-25.6h17.067v25.6c0,4.713,3.82,8.533,8.533,8.533s8.533-3.82,8.533-8.533v-25.6
				c9.421-0.011,17.056-7.645,17.067-17.067h25.6c4.713,0,8.533-3.82,8.533-8.533s-3.82-8.533-8.533-8.533h-25.6v-17.067h25.6
				c4.713,0,8.533-3.821,8.533-8.533c0-4.713-3.82-8.533-8.533-8.533h-25.6v-17.067h25.6c4.713,0,8.533-3.82,8.533-8.533
				s-3.82-8.533-8.533-8.533h-25.6v-17.067H358.466z M196.332,316.798V197.332h119.467l0.001,8.529l-0.001,0.004l0.001,0.004
				l0.004,34.108l-0.005,0.021l0.005,0.022l0.003,34.072l-0.008,0.04l0.008,0.04l0.004,34.036l-0.011,0.057l0.011,0.057l0.001,8.476
				H196.332z"/>
			<path d="M227.99,228.99c2.444-2.441,3.154-6.125,1.792-9.3c-0.433-1.034-1.039-1.987-1.791-2.817
				c-0.83-0.753-1.783-1.359-2.817-1.792c-3.177-1.341-6.849-0.634-9.3,1.792c-0.755,0.829-1.363,1.782-1.796,2.817
				c-1.357,3.176-0.646,6.858,1.795,9.301C219.238,232.29,224.626,232.29,227.99,228.99z"/>
			<path d="M225.174,283.348c-2.06-0.942-4.427-0.942-6.487,0c-1.033,0.433-1.984,1.039-2.813,1.792
				c-1.559,1.635-2.443,3.799-2.475,6.058c0,4.713,3.82,8.533,8.533,8.533s8.533-3.82,8.533-8.533
				c-0.033-2.259-0.917-4.422-2.475-6.059C227.161,284.386,226.208,283.781,225.174,283.348z"/>
			<path d="M293.471,283.268c-3.202-1.329-6.89-0.59-9.331,1.872l-1.025,1.275c-0.324,0.477-0.583,0.996-0.771,1.542
				c-0.246,0.483-0.417,1-0.508,1.533c-0.096,0.565-0.153,1.136-0.17,1.709c0,4.713,3.82,8.533,8.533,8.533s8.533-3.82,8.533-8.533
				C298.753,287.731,296.673,284.597,293.471,283.268z"/>
			<path d="M296.257,228.99c2.444-2.441,3.154-6.125,1.792-9.3c-0.433-1.034-1.039-1.987-1.791-2.817
				c-0.406-0.366-0.834-0.708-1.279-1.025c-0.475-0.324-0.992-0.582-1.538-0.767c-0.509-0.259-1.056-0.433-1.621-0.517
				c-1.636-0.343-3.339-0.162-4.867,0.517c-2.141,0.78-3.828,2.467-4.608,4.608c-1.357,3.176-0.646,6.858,1.795,9.301
				C287.505,232.29,292.892,232.29,296.257,228.99z"/>
		</g>
	</g>
</g>
<g>
</g>
<g>
</g>
<g>
</g>
<g>
</g>
<g>
</g>
<g>
</g>
<g>
</g>
<g>
</g>
<g>
</g>
<g>
</g>
<g>
</g>
<g>
</g>
<g>
</g>
<g>
</g>
<g>
</g>
</svg>
