<?xml version="1.0" encoding="iso-8859-1"?>
<!-- Generator: Adobe Illustrator 19.0.0, SVG Export Plug-In . SVG Version: 6.00 Build 0)  -->
<svg version="1.1" id="Capa_1" xmlns="http://www.w3.org/2000/svg" xmlns:xlink="http://www.w3.org/1999/xlink" x="0px" y="0px"
	 viewBox="0 0 512 512" style="enable-background:new 0 0 512 512;" xml:space="preserve">
<g>
	<g>
		<g>
			<path d="M441.233,104.9L338.833,2.5c-1.6-1.601-3.77-2.5-6.033-2.5H128C95.026,0.038,68.305,26.759,68.267,59.733v392.533
				C68.305,485.241,95.026,511.962,128,512h256c32.974-0.038,59.695-26.759,59.733-59.733V110.933
				C443.733,108.67,442.833,106.5,441.233,104.9z M426.667,452.267c-0.028,23.553-19.114,42.639-42.667,42.667H128
				c-23.553-0.028-42.639-19.114-42.667-42.667V59.733C85.361,36.181,104.447,17.094,128,17.067h201.267l97.4,97.4V452.267z"/>
			<path d="M119.467,213.333v204.8c0.028,23.553,19.114,42.639,42.667,42.667h187.733c23.553-0.028,42.639-19.114,42.667-42.667
				v-204.8c-0.028-23.553-19.114-42.639-42.667-42.667H162.133C138.581,170.694,119.494,189.781,119.467,213.333z M179.2,443.733
				h-17.067c-14.132-0.015-25.585-11.468-25.6-25.6v-51.2H179.2V443.733z M247.467,443.733h-51.2v-76.8h51.2V443.733z
				 M315.733,443.733h-51.2v-76.8h51.2V443.733z M375.467,418.133c-0.015,14.132-11.468,25.585-25.6,25.6H332.8V358.4
				c0.001-2.263-0.898-4.434-2.499-6.035c-1.6-1.6-3.771-2.499-6.035-2.499H136.533V281.6h238.933V418.133z M332.8,187.733h17.067
				c14.132,0.015,25.585,11.468,25.6,25.6v51.2H332.8V187.733z M264.533,187.733h51.2v76.8h-51.2V187.733z M196.267,187.733h51.2
				v76.8h-51.2V187.733z M179.2,264.533h-42.667v-51.2c0.015-14.132,11.468-25.585,25.6-25.6H179.2V264.533z"/>
			<path d="M256,145.067c28.277,0,51.2-22.923,51.2-51.2s-22.923-51.2-51.2-51.2s-51.2,22.923-51.2,51.2
				C204.831,122.131,227.736,145.036,256,145.067z M256,59.733c18.851,0,34.133,15.282,34.133,34.133S274.851,128,256,128
				s-34.133-15.282-34.133-34.133C221.887,75.024,237.157,59.753,256,59.733z"/>
		</g>
	</g>
</g>
<g>
</g>
<g>
</g>
<g>
</g>
<g>
</g>
<g>
</g>
<g>
</g>
<g>
</g>
<g>
</g>
<g>
</g>
<g>
</g>
<g>
</g>
<g>
</g>
<g>
</g>
<g>
</g>
<g>
</g>
</svg>
