<?xml version="1.0" encoding="utf-8"?>
<!-- Generator: Adobe Illustrator 16.0.0, SVG Export Plug-In . SVG Version: 6.00 Build 0)  -->
<!DOCTYPE svg PUBLIC "-//W3C//DTD SVG 1.1//EN" "http://www.w3.org/Graphics/SVG/1.1/DTD/svg11.dtd">
<svg version="1.1" id="Capa_1" xmlns="http://www.w3.org/2000/svg" xmlns:xlink="http://www.w3.org/1999/xlink" x="0px" y="0px"
	 width="1280px" height="720px" viewBox="0 0 1280 720" enable-background="new 0 0 1280 720" xml:space="preserve">
<g>
	<g>
		<g>
			<path stroke="#000000" stroke-width="5.6693" stroke-miterlimit="10" d="M773.487,251.111l-73.794-73.793
				c-1.153-1.154-2.717-1.802-4.348-1.802H547.758c-23.762,0.027-43.019,19.284-43.046,43.046v282.876
				c0.027,23.764,19.284,43.02,43.046,43.047h184.484c23.763-0.027,43.02-19.283,43.047-43.046v-245.98
				C775.289,253.828,774.64,252.264,773.487,251.111z M762.989,501.438c-0.02,16.974-13.774,30.728-30.747,30.748H547.758
				c-16.973-0.021-30.727-13.774-30.747-30.748V218.562c0.02-16.973,13.774-30.728,30.747-30.747h145.041l70.19,70.19V501.438z"/>
			<path stroke="#000000" stroke-width="5.6693" stroke-miterlimit="10" d="M541.608,329.252V476.84
				c0.021,16.974,13.775,30.728,30.748,30.748h135.288c16.974-0.021,30.728-13.774,30.748-30.748V329.252
				c-0.021-16.974-13.774-30.728-30.748-30.748H572.356C555.383,298.525,541.628,312.28,541.608,329.252z M584.655,495.288h-12.299
				c-10.185-0.011-18.438-8.264-18.449-18.448v-36.896h30.748V495.288z M633.851,495.288h-36.897v-55.345h36.897V495.288z
				 M683.047,495.288h-36.897v-55.345h36.897V495.288z M726.093,476.84c-0.011,10.185-8.264,18.438-18.448,18.448h-12.299v-61.494
				c0-1.631-0.647-3.195-1.801-4.35c-1.153-1.152-2.718-1.801-4.35-1.801H553.907v-49.195h172.185L726.093,476.84L726.093,476.84z
				 M695.346,310.804h12.299c10.184,0.011,18.438,8.265,18.448,18.449v36.897h-30.747V310.804z M646.149,310.804h36.897v55.346
				h-36.897V310.804z M596.954,310.804h36.897v55.346h-36.897V310.804z M584.655,366.149h-30.748v-36.897
				c0.011-10.184,8.264-18.438,18.449-18.449h12.299V366.149z"/>
			<path stroke="#000000" stroke-width="5.6693" stroke-miterlimit="10" d="M640,280.057c20.378,0,36.896-16.519,36.896-36.897
				S660.378,206.263,640,206.263c-20.377,0-36.897,16.519-36.897,36.897C603.126,263.528,619.632,280.035,640,280.057z M640,218.562
				c13.586,0,24.598,11.013,24.598,24.598c0,13.585-11.012,24.599-24.598,24.599c-13.585,0-24.598-11.013-24.598-24.598
				C615.417,229.581,626.421,218.576,640,218.562z"/>
		</g>
	</g>
</g>
<path d="M951.051,46.954C902.934-1.174,824.865-12.749,731.21,14.291C698.975,23.826,667.754,36.507,638,52.15
	c-29.754-15.643-60.975-28.324-93.21-37.859C451.15-12.737,373.061-1.151,324.95,46.954
	c-65.848,65.842-59.026,187.672,5.671,313.045c-64.698,125.372-71.519,247.201-5.671,313.044C356.061,704.16,399.69,720,451.966,720
	c31.457-0.402,62.703-5.213,92.824-14.294c32.235-9.534,63.456-22.216,93.21-37.858c29.754,15.643,60.975,28.324,93.21,37.858
	c30.121,9.079,61.367,13.891,92.824,14.294c52.27,0,95.911-15.852,127.017-46.957c65.848-65.842,59.025-187.672-5.672-313.044
	C1010.075,234.626,1016.898,112.797,951.051,46.954z M737.871,37.348c84.893-24.533,154.56-15.078,196.215,26.571
	c56.361,56.362,51.388,160.52-2.334,271.025c-32.307-55.384-71.717-106.305-117.231-151.466
	c-45.056-45.435-95.787-84.868-150.935-117.32C687.5,54.498,712.349,44.862,737.871,37.348z M341.913,63.919
	c26.477-26.478,64.268-39.938,110.1-39.938c29.188,0.412,58.175,4.912,86.116,13.367c25.522,7.513,50.37,17.15,74.284,28.811
	c-55.147,32.452-105.879,71.884-150.935,117.32c-45.514,45.162-84.924,96.083-117.231,151.466
	C290.526,224.438,285.551,120.279,341.913,63.919z M538.129,682.649c-84.875,24.533-154.554,15.09-196.216-26.571
	c-56.362-56.361-51.388-160.52,2.334-271.025c32.306,55.384,71.717,106.305,117.231,151.468
	c45.056,45.436,95.787,84.866,150.935,117.319C588.499,665.498,563.651,675.136,538.129,682.649z M478.443,519.554
	c-47.725-47.227-88.559-100.939-121.3-159.557c32.742-58.617,73.577-112.329,121.301-159.557
	C525.639,152.703,579.357,111.895,638,79.229c58.644,32.665,112.363,73.475,159.557,121.212
	c47.725,47.227,88.559,100.939,121.301,159.557c-32.742,58.617-73.578,112.329-121.302,159.557
	C750.361,567.291,696.643,608.1,638,640.766C579.356,608.102,525.638,567.291,478.443,519.554z M934.086,656.078L934.086,656.078
	c-41.65,41.661-111.322,51.115-196.216,26.571c-25.522-7.513-50.37-17.15-74.284-28.811
	c55.147-32.452,105.879-71.885,150.935-117.32c45.515-45.161,84.926-96.082,117.231-151.467
	C985.473,495.559,990.447,599.717,934.086,656.078z"/>
<circle stroke="#000000" stroke-width="5.6693" stroke-miterlimit="10" cx="292.5" cy="209.5" r="32"/>
<circle stroke="#000000" stroke-width="5.6693" stroke-miterlimit="10" cx="984.5" cy="568.484" r="32"/>
<circle stroke="#000000" stroke-width="5.6693" stroke-miterlimit="10" cx="292.5" cy="579.5" r="32"/>
<circle stroke="#000000" stroke-width="5.6693" stroke-miterlimit="10" cx="977.5" cy="106.5" r="32"/>
</svg>
