<?xml version="1.0" encoding="utf-8"?>
<!-- Generator: Adobe Illustrator 16.0.0, SVG Export Plug-In . SVG Version: 6.00 Build 0)  -->
<!DOCTYPE svg PUBLIC "-//W3C//DTD SVG 1.1//EN" "http://www.w3.org/Graphics/SVG/1.1/DTD/svg11.dtd">
<svg version="1.1" id="Capa_1" xmlns="http://www.w3.org/2000/svg" xmlns:xlink="http://www.w3.org/1999/xlink" x="0px" y="0px"
	 width="1280px" height="720px" viewBox="0 0 1280 720" enable-background="new 0 0 1280 720" xml:space="preserve">
<g>
	<g>
		<g>
			<path stroke="#000000" stroke-width="8.5039" stroke-miterlimit="10" d="M283.945,251.525l-64.8-64.8
				c-1.013-1.013-2.386-1.582-3.818-1.582h-129.6c-20.867,0.024-37.776,16.934-37.8,37.8v248.399
				c0.024,20.867,16.933,37.777,37.8,37.801h162c20.866-0.022,37.776-16.934,37.8-37.799v-216
				C285.527,253.911,284.958,252.538,283.945,251.525z M274.727,471.344c-0.018,14.904-12.096,26.982-27,27h-162
				c-14.904-0.018-26.982-12.096-27-27V222.943c0.018-14.904,12.096-26.982,27-27h127.364l61.636,61.637V471.344z"/>
			<path stroke="#000000" stroke-width="8.5039" stroke-miterlimit="10" d="M80.327,320.143v129.6c0.018,14.906,12.096,26.981,27,27
				h118.799c14.905-0.019,26.983-12.094,27-27v-129.6c-0.018-14.905-12.096-26.981-27-27h-118.8
				C92.423,293.161,80.344,305.239,80.327,320.143z M118.127,465.943h-10.8c-8.943-0.011-16.191-7.259-16.2-16.201v-32.398h27
				V465.943z M161.327,465.943h-32.4v-48.601h32.4V465.943z M204.527,465.943h-32.4v-48.601h32.4V465.943z M242.327,449.742
				c-0.009,8.942-7.257,16.19-16.2,16.201h-10.8v-54c0-1.433-0.568-2.808-1.582-3.818c-1.013-1.014-2.386-1.582-3.819-1.582h-118.8
				v-43.199h151.2L242.327,449.742L242.327,449.742z M215.327,303.943h10.8c8.943,0.01,16.191,7.257,16.2,16.2v32.4h-27V303.943z
				 M172.127,303.943h32.4v48.601h-32.4V303.943z M128.927,303.943h32.4v48.601h-32.4V303.943z M118.127,352.543h-27v-32.4
				c0.009-8.942,7.257-16.189,16.2-16.2h10.8V352.543z"/>
			<path stroke="#000000" stroke-width="8.5039" stroke-miterlimit="10" d="M166.727,276.943c17.894,0,32.4-14.506,32.4-32.399
				c0-17.895-14.506-32.4-32.4-32.4s-32.4,14.506-32.4,32.4C134.347,262.429,148.841,276.923,166.727,276.943z M166.727,222.943
				c11.929,0,21.6,9.671,21.6,21.6c0,11.93-9.671,21.601-21.6,21.601s-21.6-9.671-21.6-21.6
				C145.14,232.62,154.803,222.956,166.727,222.943z"/>
		</g>
	</g>
</g>
<g>
	<path d="M1140.912,610.663l83.366-41.683l-226.774-83.547l83.546,226.774l41.683-83.366l87.391,87.391
		c2.508,2.508,5.799,3.768,9.09,3.768c3.292,0,6.584-1.26,9.091-3.768c5.026-5.026,5.026-13.152,0-18.181L1140.912,610.663z
		 M1040.896,528.827l118.709,43.74l-49.987,24.98l-24.981,49.988L1040.896,528.827z"/>
	<path d="M955.068,213.286h155.717c7.109,0,12.855-5.747,12.855-12.857c0-7.11-5.746-12.857-12.855-12.857H955.068
		c-7.11,0-12.857,5.747-12.857,12.857C942.211,207.539,947.958,213.286,955.068,213.286z"/>
	<path d="M955.068,393.286h155.717c7.109,0,12.855-5.747,12.855-12.857c0-7.108-5.746-12.855-12.855-12.855H955.068
		c-7.11,0-12.857,5.747-12.857,12.855C942.211,387.539,947.958,393.286,955.068,393.286z"/>
	<path d="M659.068,213.286h231.429c7.11,0,12.856-5.747,12.856-12.857c0-7.11-5.746-12.857-12.856-12.857H659.068
		c-7.11,0-12.857,5.747-12.857,12.857C646.211,207.539,651.958,213.286,659.068,213.286z"/>
	<path d="M659.068,393.286h231.429c7.11,0,12.856-5.747,12.856-12.857c0-7.108-5.746-12.855-12.856-12.855H659.068
		c-7.11,0-12.857,5.747-12.857,12.855C646.211,387.539,651.958,393.286,659.068,393.286z"/>
	<path d="M659.068,172.429h166.717c7.109,0,12.855-5.747,12.855-12.857c0-7.11-5.746-12.857-12.855-12.857H659.068
		c-7.11,0-12.857,5.747-12.857,12.857C646.211,166.682,651.958,172.429,659.068,172.429z"/>
	<path d="M659.068,352.429h166.717c7.109,0,12.855-5.747,12.855-12.856s-5.746-12.856-12.855-12.856H659.068
		c-7.11,0-12.857,5.747-12.857,12.856S651.958,352.429,659.068,352.429z"/>
	<path d="M955.068,172.429h76.93c7.11,0,12.855-5.747,12.855-12.857c0-7.11-5.745-12.857-12.855-12.857h-76.93
		c-7.11,0-12.857,5.747-12.857,12.857C942.211,166.682,947.958,172.429,955.068,172.429z"/>
	<path d="M955.068,352.429h76.93c7.11,0,12.855-5.747,12.855-12.856s-5.745-12.856-12.855-12.856h-76.93
		c-7.11,0-12.857,5.747-12.857,12.856S947.958,352.429,955.068,352.429z"/>
	<path d="M659.068,573.287h231.429c7.11,0,12.856-5.747,12.856-12.857c0-7.108-5.746-12.855-12.856-12.855H659.068
		c-7.11,0-12.857,5.747-12.857,12.855C646.211,567.54,651.958,573.287,659.068,573.287z"/>
	<path d="M659.068,532.43h166.717c7.109,0,12.855-5.747,12.855-12.856s-5.746-12.856-12.855-12.856H659.068
		c-7.11,0-12.857,5.747-12.857,12.856S651.958,532.43,659.068,532.43z"/>
	<path d="M1075.521,0H694.332C608.01,0,537.784,70.226,537.784,156.549v381.188c0,86.321,70.226,156.549,156.548,156.549h254.881
		c7.109,0,12.856-5.747,12.856-12.857c0-7.109-5.747-12.856-12.856-12.856H694.332c-72.153,0-130.834-58.681-130.834-130.834
		V156.549c0-72.154,58.681-130.834,130.834-130.834h381.188c72.154,0,130.836,58.68,130.836,130.834v319.165
		c0,7.11,5.746,12.857,12.855,12.857c7.11,0,12.857-5.747,12.857-12.857V156.549C1232.069,70.226,1161.844,0,1075.521,0z"/>
</g>
<path d="M287.927,372.857H549.57c7.109,0,12.855-5.747,12.855-12.857c0-7.109-5.746-12.856-12.855-12.856H287.927
	c-7.11,0-12.857,5.747-12.857,12.856C275.069,367.11,280.816,372.857,287.927,372.857z"/>
</svg>
