<?xml version="1.0" encoding="utf-8"?>
<!-- Generator: Adobe Illustrator 16.0.0, SVG Export Plug-In . SVG Version: 6.00 Build 0)  -->
<!DOCTYPE svg PUBLIC "-//W3C//DTD SVG 1.1//EN" "http://www.w3.org/Graphics/SVG/1.1/DTD/svg11.dtd">
<svg version="1.1" id="Capa_1" xmlns="http://www.w3.org/2000/svg" xmlns:xlink="http://www.w3.org/1999/xlink" x="0px" y="0px"
	 width="1280px" height="720px" viewBox="0 0 1280 720" enable-background="new 0 0 1280 720" xml:space="preserve">
<g>
	<path d="M789.983,558.6l-117.276-50.796c-2.76-1.38-5.82-4.752-8.447-9.252l78.3-0.06c1.368,0.132,33.647,3.084,59.532-8.04
		c9.804-4.224,17.1-12.564,20.027-22.884c2.952-10.416,1.08-21.444-5.111-30.276c-22.381-31.848-74.616-115.068-76.248-199.476
		c-0.036-1.452-4.765-144.996-146.521-146.16c-20.868,0.168-40.164,3.708-57.72,10.236c-3.828-9.756-9.469-19.932-17.856-29.508
		C494.027,44.256,454.031,30,399.779,30s-94.248,14.256-118.896,42.36c-28.416,32.412-25.775,71.712-25.104,78.3v63.828
		c-7.68,8.748-12,19.944-12,31.5v48c0,14.604,6.636,28.224,17.964,37.308c10.992,43.524,33.996,76.32,42.036,86.844v39.708
		c0,11.616-6.336,22.272-16.524,27.84L180.203,544.08c-34.812,19.008-56.424,55.416-56.424,95.064V690h528h24h168v-44.364
		C843.779,608.532,823.163,575.196,789.983,558.6z M651.779,666h-504v-26.855c0-30.853,16.824-59.209,43.908-73.969l107.052-58.392
		c17.916-9.78,29.04-28.536,29.04-48.924v-48.229l-2.796-3.336c-0.288-0.348-29.7-35.928-40.92-84.78l-1.092-4.752l-4.093-2.64
		c-6.947-4.488-11.1-12.012-11.1-20.124v-48c0-6.732,2.856-13.008,8.04-17.7l3.96-3.564V150l-0.108-1.572
		c-0.035-0.324-4.115-33.588,19.261-60.252C318.815,65.496,352.751,54,399.779,54c46.86,0,80.724,11.412,100.632,33.936
		c9.9,11.184,14.88,23.676,17.364,34.404c0.191,0.84,0.372,1.668,0.54,2.496c0.168,0.852,0.348,1.704,0.479,2.52
		c0.156,0.936,0.288,1.824,0.42,2.712c0.097,0.636,0.192,1.284,0.265,1.896c0.18,1.488,0.324,2.928,0.42,4.26
		c0.012,0.108,0.012,0.204,0.012,0.312c0.084,1.296,0.145,2.52,0.18,3.636c0,0.216,0,0.396,0.013,0.612
		c0.023,0.996,0.023,1.944,0.012,2.772c0,0.12,0,0.24,0,0.36c-0.048,2.82-0.24,4.5-0.24,4.536l-0.096,76.284l3.96,3.576
		c5.185,4.68,8.04,10.956,8.04,17.688v48c0,10.476-6.864,19.644-17.064,22.788l-5.976,1.836l-1.92,5.94
		c-8.028,24.972-19.464,48.035-34.008,68.556c-3.564,5.052-7.032,9.528-10.044,12.948l-2.988,3.407v49.5
		c0,3.036,0.3,6.013,0.768,8.94c0.097,0.624,0.265,1.224,0.385,1.848c0.468,2.412,1.092,4.776,1.859,7.08
		c0.181,0.54,0.372,1.057,0.576,1.597c0.937,2.508,2.028,4.932,3.3,7.26c0.145,0.264,0.276,0.54,0.42,0.804
		c1.74,3.072,3.744,5.988,6.048,8.676l2.736,3.372h0.468c4.116,4.057,8.845,7.584,14.221,10.272l114.636,57.312
		c28.74,14.353,46.584,43.225,46.584,75.349V666z M819.779,666h-144v-24.516c0-41.269-22.932-78.36-59.832-96.816l-82.296-41.16
		c2.028-4.632,2.292-9.936,0.516-15.048c-2.939-8.46-10.62-13.92-19.56-13.92h-26.604c-0.552-0.972-0.912-2.04-1.355-3.072
		c-0.601-1.38-1.309-2.735-1.704-4.188c-0.732-2.664-1.164-5.448-1.164-8.305v-40.571c2.748-3.36,5.64-7.188,8.628-11.412
		c14.868-21,26.784-44.376,35.448-69.588c16.932-7.765,27.924-24.504,27.924-43.404v-48c0-11.556-4.32-22.752-12-31.5v-63.828
		c0.312-3,0.984-12.828-1.008-25.668c15.456-6.072,32.771-9.204,51.479-9.36c118.093,0.972,122.4,117.732,122.521,122.652
		c1.764,90.996,56.952,179.124,80.604,212.784c2.028,2.88,2.641,6.504,1.668,9.924c-0.552,1.968-2.136,5.544-6.42,7.38
		c-20.16,8.676-47.508,6.216-48.912,6.156h-82.596c-7.716,0-14.748,3.924-18.816,10.488c-4.056,6.54-4.439,14.531-1.031,21.396
		c3.756,7.572,10.392,17.688,21.3,23.124l116.964,50.664c24.828,12.54,40.248,37.572,40.248,65.424V666z"/>
	<g>
		<g>
			<g>
				<path stroke="#000000" stroke-width="8.5039" stroke-miterlimit="10" d="M1154.64,174.382l-64.801-64.8
					c-1.012-1.013-2.385-1.582-3.817-1.582H956.421c-20.866,0.024-37.775,16.934-37.799,37.8v248.399
					c0.023,20.867,16.933,37.777,37.799,37.801h162c20.867-0.023,37.776-16.934,37.801-37.799V178.2
					C1156.222,176.768,1155.651,175.395,1154.64,174.382z M1145.421,394.201c-0.018,14.904-12.096,26.982-27,27h-162
					c-14.904-0.018-26.982-12.096-27-27V145.8c0.018-14.904,12.096-26.982,27-27h127.365l61.635,61.637V394.201z"/>
				<path stroke="#000000" stroke-width="8.5039" stroke-miterlimit="10" d="M951.021,243v129.6
					c0.019,14.906,12.096,26.982,27.001,27h118.799c14.904-0.018,26.982-12.094,27-27V243c-0.018-14.905-12.096-26.982-27-27h-118.8
					C963.117,216.018,951.038,228.096,951.021,243z M988.821,388.801h-10.8c-8.943-0.01-16.19-7.258-16.2-16.201v-32.399h27V388.801
					z M1032.021,388.801h-32.399v-48.6h32.399V388.801z M1075.222,388.801h-32.4v-48.6h32.4V388.801z M1113.021,372.6
					c-0.009,8.943-7.257,16.191-16.2,16.201h-10.8v-54c0.001-1.432-0.568-2.807-1.581-3.818c-1.014-1.014-2.387-1.582-3.819-1.582
					h-118.8v-43.199h151.199L1113.021,372.6L1113.021,372.6z M1086.021,226.8h10.8c8.943,0.01,16.191,7.257,16.2,16.2v32.4h-27
					V226.8z M1042.821,226.8h32.4v48.6h-32.4V226.8z M999.622,226.8h32.399v48.6h-32.399V226.8z M988.821,275.4h-27V243
					c0.01-8.943,7.257-16.19,16.2-16.2h10.8V275.4z"/>
				<path stroke="#000000" stroke-width="8.5039" stroke-miterlimit="10" d="M1037.421,199.8c17.895,0,32.4-14.506,32.4-32.399
					c0-17.895-14.506-32.4-32.4-32.4c-17.894,0-32.399,14.506-32.399,32.4C1005.041,185.286,1019.536,199.78,1037.421,199.8z
					 M1037.421,145.8c11.93,0,21.601,9.671,21.601,21.6c0,11.93-9.671,21.601-21.601,21.601c-11.929,0-21.6-9.671-21.6-21.6
					C1015.834,155.477,1025.497,145.812,1037.421,145.8z"/>
			</g>
		</g>
	</g>
	<path d="M136.637,690h900.786c7.11,0,12.856-5.747,12.856-12.857c0-7.109-5.746-12.857-12.856-12.857H136.637
		c-7.11,0-12.857,5.748-12.857,12.857C123.779,684.253,129.526,690,136.637,690z"/>
	<path d="M1024.564,432v245.144c0,7.11,5.747,12.856,12.857,12.856c7.109,0,12.857-5.746,12.857-12.856V432
		c0-7.11-5.748-12.857-12.857-12.857C1030.312,419.143,1024.564,424.89,1024.564,432z"/>
</g>
</svg>
