<?xml version="1.0" encoding="utf-8"?>
<!-- Generator: Adobe Illustrator 16.0.0, SVG Export Plug-In . SVG Version: 6.00 Build 0)  -->
<!DOCTYPE svg PUBLIC "-//W3C//DTD SVG 1.1//EN" "http://www.w3.org/Graphics/SVG/1.1/DTD/svg11.dtd">
<svg version="1.1" id="Capa_1" xmlns="http://www.w3.org/2000/svg" xmlns:xlink="http://www.w3.org/1999/xlink" x="0px" y="0px"
	 width="1846.5px" height="729.718px" viewBox="0 -9.718 1846.5 729.718" enable-background="new 0 -9.718 1846.5 729.718"
	 xml:space="preserve">
<g>
	<path d="M742.712,558.6l-117.275-50.796c-2.76-1.38-5.82-4.752-8.447-9.252l78.3-0.06c1.368,0.132,33.647,3.084,59.532-8.04
		c9.805-4.225,17.1-12.564,20.027-22.884c2.952-10.416,1.08-21.444-5.111-30.276c-22.381-31.848-74.616-115.068-76.248-199.476
		c-0.036-1.452-4.765-144.996-146.521-146.16c-20.868,0.168-40.164,3.708-57.721,10.236c-3.827-9.756-9.469-19.932-17.855-29.508
		C446.757,44.256,406.761,30,352.509,30c-54.253,0-94.248,14.256-118.896,42.36c-28.416,32.412-25.775,71.712-25.104,78.3v63.828
		c-7.68,8.748-12,19.944-12,31.5v48c0,14.604,6.637,28.224,17.965,37.308c10.991,43.524,33.996,76.32,42.035,86.844v39.708
		c0,11.616-6.336,22.272-16.523,27.841L132.933,544.08c-34.812,19.008-56.425,55.416-56.425,95.064V690h528.001h24h168v-44.364
		C796.509,608.532,775.893,575.196,742.712,558.6z M604.509,666H100.508v-26.855c0-30.853,16.824-59.209,43.908-73.969
		l107.053-58.392c17.916-9.78,29.04-28.536,29.04-48.924v-48.229l-2.797-3.336c-0.287-0.348-29.699-35.928-40.92-84.78l-1.092-4.752
		l-4.093-2.64c-6.947-4.488-11.101-12.012-11.101-20.124v-48c0-6.732,2.856-13.008,8.04-17.7l3.961-3.564V150l-0.108-1.572
		c-0.035-0.324-4.115-33.588,19.261-60.252C271.544,65.496,305.48,54,352.509,54c46.859,0,80.724,11.412,100.632,33.936
		c9.899,11.184,14.88,23.676,17.364,34.404c0.19,0.84,0.372,1.668,0.54,2.496c0.168,0.852,0.348,1.704,0.479,2.52
		c0.156,0.936,0.288,1.824,0.42,2.712c0.097,0.636,0.192,1.284,0.265,1.896c0.181,1.488,0.324,2.928,0.421,4.26
		c0.012,0.108,0.012,0.204,0.012,0.312c0.084,1.296,0.145,2.52,0.18,3.636c0,0.216,0,0.396,0.013,0.612
		c0.023,0.996,0.023,1.944,0.013,2.772c0,0.12,0,0.24,0,0.36c-0.048,2.82-0.24,4.5-0.24,4.536l-0.096,76.284l3.96,3.576
		c5.185,4.68,8.04,10.956,8.04,17.688v48c0,10.476-6.864,19.644-17.064,22.788l-5.976,1.836l-1.92,5.94
		c-8.028,24.972-19.465,48.034-34.008,68.556c-3.564,5.052-7.032,9.528-10.045,12.948l-2.987,3.406v49.5
		c0,3.036,0.3,6.014,0.768,8.94c0.097,0.624,0.265,1.224,0.385,1.848c0.469,2.412,1.093,4.776,1.859,7.08
		c0.181,0.54,0.372,1.058,0.576,1.598c0.937,2.508,2.028,4.932,3.3,7.26c0.145,0.264,0.276,0.54,0.42,0.804
		c1.74,3.072,3.744,5.988,6.048,8.676l2.736,3.372h0.468c4.116,4.058,8.845,7.584,14.221,10.272l114.637,57.312
		c28.739,14.354,46.584,43.226,46.584,75.35V666H604.509z M772.509,666h-144v-24.516c0-41.27-22.933-78.36-59.832-96.816
		l-82.296-41.16c2.027-4.632,2.292-9.936,0.516-15.048c-2.939-8.46-10.62-13.92-19.56-13.92h-26.604
		c-0.552-0.972-0.912-2.04-1.354-3.072c-0.602-1.38-1.31-2.734-1.704-4.188c-0.732-2.664-1.164-5.448-1.164-8.306v-40.57
		c2.748-3.36,5.64-7.188,8.628-11.412c14.868-21,26.784-44.376,35.447-69.588C497.518,329.639,508.51,312.9,508.51,294v-48
		c0-11.556-4.32-22.752-12-31.5v-63.828c0.312-3,0.983-12.828-1.009-25.668c15.456-6.072,32.771-9.204,51.479-9.36
		c118.093,0.972,122.4,117.732,122.521,122.652c1.765,90.996,56.952,179.124,80.604,212.784c2.028,2.88,2.641,6.504,1.668,9.924
		c-0.552,1.968-2.136,5.544-6.42,7.38c-20.16,8.677-47.508,6.216-48.912,6.156h-82.596c-7.716,0-14.748,3.924-18.816,10.488
		c-4.056,6.54-4.438,14.53-1.03,21.396c3.756,7.572,10.392,17.688,21.3,23.124l116.964,50.664
		c24.828,12.54,40.248,37.572,40.248,65.424V666H772.509z"/>
	<g>
		<g>
			<g>
				<path stroke="#000000" stroke-width="8.5039" stroke-miterlimit="10" d="M1107.369,174.382l-64.801-64.8
					c-1.012-1.013-2.385-1.582-3.817-1.582H909.15c-20.866,0.024-37.774,16.934-37.799,37.8v248.399
					c0.022,20.867,16.933,37.776,37.799,37.801h162c20.867-0.023,37.776-16.934,37.801-37.799V178.2
					C1108.951,176.768,1108.381,175.395,1107.369,174.382z M1098.15,394.201c-0.018,14.904-12.096,26.981-27,27h-162
					c-14.903-0.019-26.981-12.096-27-27V145.8c0.019-14.904,12.097-26.982,27-27h127.365l61.635,61.637V394.201z"/>
				<path stroke="#000000" stroke-width="8.5039" stroke-miterlimit="10" d="M903.751,243v129.6c0.019,14.906,12.096,26.982,27,27
					h118.8c14.903-0.018,26.981-12.094,27-27V243c-0.019-14.905-12.097-26.982-27-27h-118.8
					C915.847,216.018,903.768,228.096,903.751,243z M941.551,388.801h-10.8c-8.943-0.01-16.19-7.258-16.2-16.201v-32.398h27V388.801
					z M984.751,388.801h-32.399v-48.6h32.399V388.801z M1027.951,388.801h-32.399v-48.6h32.399V388.801z M1065.751,372.6
					c-0.01,8.943-7.258,16.191-16.2,16.201h-10.8v-54c0-1.432-0.568-2.807-1.582-3.817c-1.014-1.015-2.387-1.582-3.818-1.582h-118.8
					v-43.199h151.198L1065.751,372.6L1065.751,372.6z M1038.751,226.8h10.8c8.942,0.01,16.19,7.257,16.2,16.2v32.4h-27V226.8z
					 M995.551,226.8h32.399v48.6h-32.399V226.8z M952.352,226.8h32.399v48.6h-32.399V226.8z M941.551,275.4h-27V243
					c0.01-8.943,7.257-16.19,16.2-16.2h10.8V275.4z"/>
				<path stroke="#000000" stroke-width="8.5039" stroke-miterlimit="10" d="M990.15,199.8c17.896,0,32.4-14.506,32.4-32.399
					c0-17.895-14.506-32.4-32.4-32.4c-17.894,0-32.399,14.506-32.399,32.4C957.771,185.286,972.266,199.78,990.15,199.8z
					 M990.15,145.8c11.931,0,21.601,9.671,21.601,21.6c0,11.93-9.671,21.601-21.601,21.601c-11.929,0-21.6-9.671-21.6-21.6
					C968.563,155.477,978.227,145.812,990.15,145.8z"/>
			</g>
		</g>
	</g>
	<path d="M89.366,690h900.786c7.11,0,12.856-5.747,12.856-12.857c0-7.108-5.746-12.856-12.856-12.856H89.366
		c-7.11,0-12.857,5.748-12.857,12.856C76.508,684.253,82.255,690,89.366,690z"/>
	<path d="M977.294,432v245.144c0,7.11,5.746,12.856,12.856,12.856c7.109,0,12.857-5.746,12.857-12.856V432
		c0-7.11-5.748-12.857-12.857-12.857C983.042,419.143,977.294,424.89,977.294,432z"/>
	<path d="M1251.039,294.943h-140.46c-7.111,0-12.857,5.746-12.857,12.855s5.746,12.857,12.857,12.857h140.46
		c7.111,0,12.857-5.748,12.857-12.857C1263.896,300.691,1258.15,294.943,1251.039,294.943z"/>
	<g>
		<path d="M1703.052,552.713l61.216-30.607l-166.521-61.35l61.348,166.522l30.608-61.217l64.172,64.172
			c1.841,1.842,4.258,2.767,6.674,2.767c2.418,0,4.835-0.925,6.676-2.767c3.691-3.69,3.691-9.658,0-13.351L1703.052,552.713z
			 M1629.609,492.62l87.169,32.119l-36.706,18.343l-18.345,36.707L1629.609,492.62z"/>
		<g>
			<path d="M1483.052,260.916h138.697c5.221,0,9.44-4.22,9.44-9.44c0-5.222-4.22-9.441-9.44-9.441h-138.697
				c-5.221,0-9.441,4.219-9.441,9.441C1473.61,256.696,1477.831,260.916,1483.052,260.916z"/>
			<path d="M1483.052,393.092h169.94c5.221,0,9.44-4.221,9.44-9.441c0-5.22-4.22-9.44-9.44-9.44h-169.94
				c-5.221,0-9.441,4.221-9.441,9.44C1473.61,388.871,1477.831,393.092,1483.052,393.092z"/>
			<path d="M1483.052,230.915h91.179c5.221,0,9.439-4.221,9.439-9.441c0-5.221-4.219-9.441-9.439-9.441h-91.179
				c-5.221,0-9.441,4.22-9.441,9.441C1473.61,226.694,1477.831,230.915,1483.052,230.915z"/>
			<path d="M1483.052,363.09h122.422c5.221,0,9.439-4.221,9.439-9.441s-4.219-9.439-9.439-9.439h-122.422
				c-5.221,0-9.441,4.219-9.441,9.439S1477.831,363.09,1483.052,363.09z"/>
			<path d="M1483.052,525.268h104.009c5.221,0,9.44-4.22,9.44-9.441c0-5.22-4.22-9.439-9.44-9.439h-104.009
				c-5.221,0-9.441,4.22-9.441,9.439C1473.61,521.048,1477.831,525.268,1483.052,525.268z"/>
			<path d="M1483.052,495.266h56.49c5.221,0,9.439-4.22,9.439-9.44s-4.219-9.44-9.439-9.44h-56.49c-5.221,0-9.441,4.22-9.441,9.44
				S1477.831,495.266,1483.052,495.266z"/>
		</g>
		<path d="M1641.034,104.298h-279.91c-63.387,0-114.954,51.567-114.954,114.955v279.91c0,63.387,51.567,114.955,114.954,114.955
			h187.161c5.221,0,9.44-4.22,9.44-9.441c0-5.221-4.22-9.44-9.44-9.44h-187.161c-52.982,0-96.072-43.09-96.072-96.072V219.253
			c0-52.983,43.09-96.073,96.072-96.073h279.909c52.983,0,96.074,43.089,96.074,96.073v234.366c0,5.221,4.219,9.441,9.439,9.441
			c5.222,0,9.441-4.221,9.441-9.441V219.253C1755.989,155.866,1704.422,104.298,1641.034,104.298z"/>
		<path d="M1429.879,177.503c-3.969-3.409-9.97-2.963-13.378,1.025l-59.327,69.202l-36.29-27.213
			c-4.188-3.134-10.143-2.308-13.284,1.899c-3.152,4.187-2.298,10.141,1.898,13.284l43.402,32.559
			c1.701,1.282,3.704,1.899,5.688,1.899c2.688,0,5.348-1.13,7.217-3.323l65.109-75.962
			C1434.333,186.903,1433.867,180.921,1429.879,177.503z"/>
		<path d="M1429.879,310.437c-3.969-3.41-9.97-2.963-13.378,1.025l-59.327,69.202l-36.29-27.214
			c-4.188-3.133-10.143-2.307-13.284,1.899c-3.152,4.188-2.298,10.141,1.898,13.284l43.402,32.56
			c1.701,1.281,3.704,1.899,5.688,1.899c2.688,0,5.348-1.13,7.217-3.323l65.109-75.962
			C1434.333,319.837,1433.867,313.854,1429.879,310.437z"/>
		<path d="M1429.879,443.371c-3.969-3.41-9.97-2.964-13.378,1.025l-59.327,69.201l-36.29-27.214
			c-4.188-3.133-10.143-2.308-13.284,1.899c-3.152,4.188-2.298,10.141,1.898,13.283l43.402,32.56
			c1.701,1.281,3.704,1.899,5.688,1.899c2.688,0,5.348-1.13,7.217-3.323l65.109-75.962
			C1434.333,452.771,1433.867,446.788,1429.879,443.371z"/>
	</g>
</g>
</svg>
